<svg id="Layer_1" data-name="Layer 1" xmlns="http://www.w3.org/2000/svg" viewBox="0 0 28.27 19.14"><defs><style>.cls-1{fill:#fff;}</style></defs><title>game</title><path class="cls-1" d="M691.33,390.69q0.12,0.72.18,1.3c0,0.38.06,0.74,0.06,1.06a5.21,5.21,0,0,1-.17,1.44,3.55,3.55,0,0,1-.45,1,2.69,2.69,0,0,1-.49.56,3.21,3.21,0,0,1-.53.38,3,3,0,0,1-.49.23,1.62,1.62,0,0,1-.37.09,1.06,1.06,0,0,1-.45-0.27q-0.36-.28-0.86-0.71l-1.07-.94-1.09-1-0.94-.82a6,6,0,0,0-.58-0.46q-0.26-.16-0.46-0.3a2,2,0,0,0-.52-0.26,4.49,4.49,0,0,0-.86-0.19,11.79,11.79,0,0,0-1.48-.07h-6.67a11.27,11.27,0,0,0-1.38.07,4.74,4.74,0,0,0-.87.18,2.76,2.76,0,0,0-.58.26l-0.5.3a3.49,3.49,0,0,0-.4.3l-0.62.53-0.76.67-0.83.74-0.82.72-0.72.62-0.54.43a0.59,0.59,0,0,1-.29.15,1.42,1.42,0,0,1-.37-0.09,3,3,0,0,1-.47-0.22,3.37,3.37,0,0,1-.51-0.38,2.66,2.66,0,0,1-.47-0.55,4,4,0,0,1-.48-1,5.07,5.07,0,0,1-.18-1.49,9.8,9.8,0,0,1,.06-1q0.06-.56.18-1.25,0.09-.5.26-1.18t0.37-1.45q0.2-.77.44-1.6t0.48-1.63q0.24-.81.48-1.55t0.44-1.35q0.2-.61.36-1a5.37,5.37,0,0,1,.25-0.61,0.87,0.87,0,0,1,.3-0.31,5.88,5.88,0,0,1,.53-0.31,5.31,5.31,0,0,0,.11-0.53,0.49,0.49,0,0,1,.1-0.29,1.94,1.94,0,0,1,.32-0.22c0.16-.1.36-0.2,0.58-0.3l0.7-.3a4,4,0,0,1,.7-0.21,7.72,7.72,0,0,1,1-.15q0.51,0,.91,0a1.71,1.71,0,0,1,.6.06l0.33,0.16,0.51,0.25,0.51,0.24a1.35,1.35,0,0,0,.33.12h6.67a1.36,1.36,0,0,0,.32-0.12l0.5-.24,0.5-.25,0.32-.16a0.73,0.73,0,0,1,.22,0l0.38,0a9,9,0,0,1,.91.05,8.47,8.47,0,0,1,1,.16,4.25,4.25,0,0,1,.68.2q0.37,0.14.7,0.3a6,6,0,0,1,.58.31l0.34,0.22a0.71,0.71,0,0,1,.1.3c0,0.16.07,0.34,0.11,0.54a4.68,4.68,0,0,1,.53.3,0.86,0.86,0,0,1,.3.31,5.21,5.21,0,0,1,.25.61q0.16,0.43.36,1t0.45,1.36q0.24,0.75.48,1.55l0.48,1.63q0.24,0.83.44,1.6t0.37,1.44Q691.24,390.18,691.33,390.69Zm-13.9-6.45a1.61,1.61,0,0,0,.65-0.13,1.66,1.66,0,0,0,.88-0.88,1.67,1.67,0,0,0,0-1.3,1.66,1.66,0,0,0-.88-0.88,1.67,1.67,0,0,0-1.3,0,1.66,1.66,0,0,0-.88.88,1.67,1.67,0,0,0,0,1.3,1.66,1.66,0,0,0,.88.88A1.61,1.61,0,0,0,677.43,384.24Z" transform="translate(-663.3 -377.58)"/></svg>