<svg id="Layer_1" data-name="Layer 1" xmlns="http://www.w3.org/2000/svg" viewBox="0 0 27.92 31.91"><defs><style>.cls-1{fill:#fff;}</style></defs><title>IoT</title><path class="cls-1" d="M688,377.41v31.91H660V377.41H688Zm-2,8v-6H662v6H686Zm0,2H662v19.94H686V387.38Zm-20.94-6a1,1,0,1,1-.7.3A1,1,0,0,1,665,381.4Zm9,23.93a7.68,7.68,0,0,1-3.1-.63,8.08,8.08,0,0,1-4.25-4.25,7.93,7.93,0,0,1,0-6.2A8.08,8.08,0,0,1,670.9,390a7.93,7.93,0,0,1,6.2,0,8.08,8.08,0,0,1,4.25,4.25,7.93,7.93,0,0,1,0,6.2,8.08,8.08,0,0,1-4.25,4.25A7.68,7.68,0,0,1,674,405.33Zm-5-23.93a1,1,0,1,1-.7.3A1,1,0,0,1,669,381.4Zm-0.67,14a6.05,6.05,0,0,0,0,3.93,2,2,0,0,0,1.19-.68,2,2,0,0,0,0-2.57A2,2,0,0,0,668.34,395.39Zm5.66-4a5.89,5.89,0,0,0-2.59.58,6,6,0,0,0-2.07,1.64,4.15,4.15,0,0,1,1.08.59,4,4,0,0,1,.84.87,4,4,0,0,1,.55,1.08,3.92,3.92,0,0,1,0,2.44,4,4,0,0,1-.55,1.08,4.16,4.16,0,0,1-.84.87,3.69,3.69,0,0,1-1.08.58,6,6,0,0,0,2.07,1.64,6,6,0,0,0,4.91.12,6,6,0,0,0,3.19-3.19,6,6,0,0,0,0-4.65,6,6,0,0,0-3.19-3.19A5.83,5.83,0,0,0,674,391.37Zm9-10a1,1,0,1,1-.7.3A1,1,0,0,1,683,381.4Z" transform="translate(-660.04 -377.41)"/></svg>