<svg id="Layer_1" data-name="Layer 1" xmlns="http://www.w3.org/2000/svg" viewBox="0 0 14 2"><defs><style>.cls-1{fill:#fff;}</style></defs><title>more</title><path class="cls-1" d="M672.19,391.82a1,1,0,0,1,.39.08,1,1,0,0,1,.53.53,1,1,0,0,1,0,.78,1,1,0,0,1-.53.53,1,1,0,0,1-.78,0,1,1,0,0,1-.53-0.53,1,1,0,0,1,0-.78,1,1,0,0,1,.53-0.53A1,1,0,0,1,672.19,391.82Zm6,0a1,1,0,0,1,.39.08,1,1,0,0,1,.53.53,1,1,0,0,1,0,.78,1,1,0,0,1-.53.53,1,1,0,0,1-.78,0,1,1,0,0,1-.53-0.53,1,1,0,0,1,0-.78,1,1,0,0,1,.53-0.53A1,1,0,0,1,678.19,391.82Zm6,0a1,1,0,0,1,.39.08,1,1,0,0,1,.53.53,1,1,0,0,1,0,.78,1,1,0,0,1-.53.53,1,1,0,0,1-.78,0,1,1,0,0,1-.53-0.53,1,1,0,0,1,0-.78,1,1,0,0,1,.53-0.53A1,1,0,0,1,684.19,391.82Z" transform="translate(-671.19 -391.82)"/></svg>